<?xml version="1.0" standalone="no"?> <!DOCTYPE svg PUBLIC "-//W3C//DTD SVG 1.0//EN" "http://www.w3.org/TR/2001/REC-SVG-20010904/DTD/svg10.dtd" > <svg xmlns="http://www.w3.org/2000/svg" width="100%" height="100%">
<defs >
<font id="functionpromediumwebfont" horiz-adv-x="814" ><font-face
    font-family="Function Pro"
    units-per-em="2048"
    panose-1="2 11 5 2 2 2 4 2 3 3"
    ascent="1878"
    descent="-546"
    alphabetic="0" />
<missing-glyph horiz-adv-x="1024" d="M102 0V1368H922V0H102ZM197 193L459 684L197 1174V193ZM250 94H774L512 586L250 94ZM250 1274L512 782L774 1274H250ZM565 684L827 193V1174L565 684Z" />
<glyph unicode=" " glyph-name="space" horiz-adv-x="512" />
<glyph unicode="!" glyph-name="exclam" horiz-adv-x="600" d="M178 47T178 98T215 185T301 221Q352 221 389 186T426 99T390 10T303 -27T215 10ZM201 305V1366H399V305H201Z" />
<glyph unicode="&quot;" glyph-name="quotedbl" horiz-adv-x="743" d="M96 1366H322L285 817H133L96 1366ZM420 1366H647L608 817H457L420 1366Z" />
<glyph unicode="#" glyph-name="numbersign" horiz-adv-x="1136" d="M45 420V573H268L301 825H96V981H319L369 1378L522 1358L477 981H737L786 1378L942 1358L895 981H1094V825H879L846 573H1042V418H825L774 -6L618 14L670 418H408L354 -6L197 14L248 420H45ZM426
573H688L719 825H457L426 573Z" />
<glyph unicode="$" glyph-name="dollar" horiz-adv-x="1161" d="M125 381L319 420Q352 309 389 260Q455 174 578 174Q676 174 740 237T805 397Q805 485 751 538T532 666Q436 709 397 732T326 786Q222 890 221 1036Q221 1163 300 1254T524 1384V1559H678V1384Q875
1355 975 1155L803 1059Q760 1137 714 1168T600 1200Q524 1200 472 1154T420 1040Q420 977 462 936T625 840Q811 754 887 686Q1008 577 1008 405Q1008 255 918 141T678 -14V-199H524V-20Q348 13 254 107T125 381Z" />
<glyph unicode="%" glyph-name="percent" horiz-adv-x="1658" d="M68 1063Q68 1190 166 1285T395 1380Q530 1380 627 1285T725 1059Q725 926 628 832T393 737Q260 737 164 833T68 1063ZM221 1061Q221 987 272 935T397 883Q469 883 520 935T571 1058T520 1181T395
1233Q325 1233 273 1182T221 1061ZM389 37L1171 1389L1268 1335L485 -23L389 37ZM932 313Q932 440 1030 535T1260 631Q1395 631 1492 536T1589 307T1492 80T1257 -14Q1124 -14 1028 82T932 313ZM1085 311Q1085 237 1136 185T1262 133Q1334 133 1385 185T1436 309T1385
432T1260 483Q1190 483 1138 432T1085 311Z" />
<glyph unicode="&amp;" glyph-name="ampersand" horiz-adv-x="1323" d="M109 379Q109 524 215 641Q246 674 268 691T395 778L397 780Q399 782 403 785T412 793Q277 938 277 1077T367 1303T604 1389Q745 1389 837 1305T930 1092Q930 1004 880 932T698 760L944 463Q1057
590 1096 641L1231 502Q1186 439 1069 313L1323 0H1067L930 166Q877 113 815 70Q678 -26 539 -27Q357 -27 233 90T109 379ZM307 383Q307 297 375 229T530 160Q649 160 805 315L537 643Q402 551 355 497T307 383ZM469 1100Q469 1059 485 1028T569 918L580 905Q682
983 708 1016T735 1098Q735 1151 699 1185T602 1219Q545 1219 507 1185T469 1100Z" />
<glyph unicode="&apos;" glyph-name="quotesingle" horiz-adv-x="419" d="M96 1366H322L285 817H133L96 1366Z" />
<glyph unicode="(" glyph-name="parenleft" horiz-adv-x="663" d="M164 565Q164 854 229 1145Q272 1338 356 1509L541 1438Q455 1227 426 1112Q367 870 367 565Q367 256 426 18Q455 -97 541 -307L356 -379Q272 -207 229 -16Q164 274 164 565Z" />
<glyph unicode=")" glyph-name="parenright" horiz-adv-x="663" d="M123 -307Q209 -96 238 18Q297 274 297 565T238 1112Q209 1227 123 1438L307 1509Q391 1337 434 1145Q500 854 500 565Q500 274 434 -16Q391 -206 307 -379L123 -307Z" />
<glyph unicode="*" glyph-name="asterisk" horiz-adv-x="1161" d="M227 1174L283 1341L506 1255L492 1493H670L655 1255L879 1341L934 1174L702 1112L854 928L711 823L580 1024L451 823L307 928L459 1112L227 1174Z" />
<glyph unicode="+" glyph-name="plus" horiz-adv-x="1161" d="M109 629V793H498V1174H662V793H1051V629H662V246H498V629H109Z" />
<glyph unicode="," glyph-name="comma" horiz-adv-x="518" d="M18 -264L227 256L406 186L154 -319L18 -264Z" />
<glyph unicode="-" glyph-name="hyphen" horiz-adv-x="395" d="M0 350V524H395V350H0Z" />
<glyph unicode="." glyph-name="period" horiz-adv-x="518" d="M137 47T137 98T174 185T260 221Q311 221 348 186T385 99T349 10T262 -27T174 10Z" />
<glyph unicode="/" glyph-name="slash" horiz-adv-x="937" d="M-14 -301L766 1509L932 1436L150 -375L-14 -301Z" />
<glyph unicode="0" glyph-name="zero" horiz-adv-x="1161" d="M98 692Q98 991 236 1190T582 1389Q682 1389 777 1332T936 1176Q1063 981 1063 682Q1063 385 936 190Q873 94 778 36T582 -23Q480 -23 385 34T225 190Q98 387 98 692ZM301 690Q301 467 387 301Q459
166 582 166Q703 166 774 301Q860 469 860 684Q860 907 774 1067Q698 1202 580 1202Q459 1202 387 1067Q301 905 301 690Z" />
<glyph unicode="1" glyph-name="one" horiz-adv-x="1161" d="M276 1174L389 1366H719V0H512V1174H276Z" />
<glyph unicode="2" glyph-name="two" horiz-adv-x="1161" d="M68 0L543 573Q684 745 733 827T782 975Q782 1069 715 1134T549 1200Q424 1200 358 1106Q325 1057 311 956H106Q126 1114 186 1204Q307 1388 543 1389Q729 1389 856 1270T983 975Q983 864 925 758T690
444L477 195H985V0H68Z" />
<glyph unicode="3" glyph-name="three" horiz-adv-x="1161" d="M98 371H297Q311 289 346 248Q416 166 532 166Q632 166 698 233T764 403Q764 542 666 602Q615 633 489 635V811H545Q647 811 698 868Q745 925 745 1004Q745 1092 687 1147T537 1202Q431 1202 379
1130Q359 1101 338 1018H133Q156 1155 205 1231Q309 1389 541 1389Q719 1389 832 1284T946 1012Q946 826 799 721Q967 621 967 397Q967 213 843 95T526 -23Q401 -23 301 30T147 180Q108 246 98 371Z" />
<glyph unicode="4" glyph-name="four" horiz-adv-x="1161" d="M39 195L915 1466V381H1061V195H915V0H709V195H39ZM393 381H709V838L393 381Z" />
<glyph unicode="5" glyph-name="five" horiz-adv-x="1161" d="M57 231L213 365Q264 279 299 246Q383 166 504 166Q627 166 711 253T795 469Q795 596 712 682T504 768Q365 768 264 647H197L410 1366H975V1174H555L487 946Q512 950 541 950Q654 950 737 911Q854
860 924 739T995 473Q995 258 851 118T485 -23Q213 -23 57 231Z" />
<glyph unicode="6" glyph-name="six" horiz-adv-x="1161" d="M121 422Q121 588 254 766L731 1413L883 1300L557 856Q610 862 631 862Q799 862 918 736T1038 434Q1038 246 905 112T584 -23Q398 -23 260 109T121 422ZM322 530T322 424T397 242T579 166T762 241T838
420Q838 529 763 604T580 680Q474 680 398 605Z" />
<glyph unicode="7" glyph-name="seven" horiz-adv-x="1161" d="M109 57L791 1174H117V1366H1135L272 -47L109 57Z" />
<glyph unicode="8" glyph-name="eight" horiz-adv-x="1161" d="M152 389Q152 500 200 584T336 711Q186 815 186 999Q186 1165 301 1277T586 1389T868 1277T981 997Q981 823 831 711Q915 668 962 583T1010 391Q1010 211 891 94T588 -23Q402 -23 277 95T152 389ZM354
395Q354 299 420 233T582 166Q674 166 740 232T807 393Q807 485 741 552T580 619Q488 619 421 552T354 395ZM381 999Q381 913 440 853T584 793T727 853T786 997T727 1141T584 1202T441 1142T381 999Z" />
<glyph unicode="9" glyph-name="nine" horiz-adv-x="1161" d="M121 932Q121 1120 254 1254T575 1389Q761 1389 899 1257T1038 944Q1038 784 905 602L428 -47L276 66L602 510Q549 504 528 504Q360 504 241 630T121 932ZM322 948Q322 839 397 763T579 686T762 762T838
944T762 1126T580 1202T398 1126T322 948Z" />
<glyph unicode=":" glyph-name="colon" horiz-adv-x="518" d="M137 764Q137 813 174 849T260 885Q311 885 347 849T383 762T347 675T260 639T173 676T137 764ZM137 47T137 98T174 185T260 221Q311 221 348 186T385 99T349 10T262 -27T174 10Z" />
<glyph unicode=";" glyph-name="semicolon" horiz-adv-x="518" d="M18 -264L227 256L406 186L154 -319L18 -264ZM178 764Q178 813 215 849T301 885Q352 885 388 849T424 762T388 675T301 639T214 676T178 764Z" />
<glyph unicode="&lt;" glyph-name="less" horiz-adv-x="1024" d="M68 606V780L954 1212V1010L285 692L954 375V172L68 606Z" />
<glyph unicode="=" glyph-name="equal" horiz-adv-x="1161" d="M109 492V641H1051V492H109ZM109 778V928H1051V778H109Z" />
<glyph unicode="&gt;" glyph-name="greater" horiz-adv-x="1024" d="M70 172V375L739 692L70 1010V1212L956 778V604L70 172Z" />
<glyph unicode="?" glyph-name="question" horiz-adv-x="886" d="M106 1059Q106 1198 200 1291T438 1384T679 1290T776 1057Q776 891 655 803Q592 758 449 715Q388 697 361 671T334 604Q334 559 364 530T438 500Q489 500 515 532T545 637H745Q739 514 692 444Q653
387 582 350T436 313Q309 313 222 402T135 621Q135 723 189 785T375 895Q496 938 526 961Q575 994 575 1061Q575 1120 539 1157T440 1194Q381 1194 344 1158T307 1063Q307 1032 317 987H113Q106 1041 106 1059ZM319 47T319 98T356 185T442 221Q493 221 530 186T567
99T532 10T445 -27T356 10Z" />
<glyph unicode="@" glyph-name="at" horiz-adv-x="1593" d="M96 684Q96 983 308 1187T829 1391Q1116 1391 1307 1216T1499 780Q1499 581 1395 435T1149 289Q1036 289 993 395Q884 284 754 285Q607 285 511 390T414 655Q414 827 521 942T791 1057Q936 1057 1030
942L1040 1040H1176L1120 575Q1112 505 1112 483Q1112 417 1167 418Q1245 418 1307 526T1370 770Q1370 987 1219 1127T831 1268Q585 1268 418 1100T250 686Q250 526 323 393T528 184Q663 108 848 109Q971 109 1065 132T1294 221L1341 94Q1105 -25 850 -25Q617 -25
446 72Q284 164 190 327T96 684ZM596 649Q596 557 642 498T760 438Q854 438 924 517T995 698Q995 780 940 835T801 891Q713 891 655 822T596 649Z" />
<glyph unicode="A" glyph-name="A" horiz-adv-x="1341" d="M6 0L682 1452L1333 0H1108L965 332H381L227 0H6ZM467 526H881L678 989L467 526Z" />
<glyph unicode="B" glyph-name="B" horiz-adv-x="1071" d="M164 0V1366H369Q596 1366 696 1296Q766 1249 809 1162T852 983Q852 838 741 735Q850 696 912 604T975 391Q975 213 838 98Q770 43 692 22T477 0H164ZM371 195H498Q629 195 688 238Q772 295 772 399Q772
501 688 561Q622 606 475 606H371V195ZM371 778H434Q549 778 598 827Q657 886 657 979Q657 1073 600 1126Q551 1175 442 1176H371V778Z" />
<glyph unicode="C" glyph-name="C" horiz-adv-x="1267" d="M96 676Q96 973 307 1183T817 1393Q1001 1393 1174 1292V1049Q994 1199 803 1198Q594 1198 449 1047T303 678Q303 465 448 317T805 168Q905 168 989 204T1174 324V76Q996 -26 803 -27Q510 -27 303 179T96 676Z" />
<glyph unicode="D" glyph-name="D" horiz-adv-x="1314" d="M164 0V1366H451Q627 1366 741 1336T956 1233Q1220 1038 1221 684Q1221 328 946 131Q844 55 737 28T446 0H164ZM371 195H463Q696 195 827 293Q1013 430 1014 682Q1014 803 965 906T827 1075Q698 1171
463 1171H371V195Z" />
<glyph unicode="E" glyph-name="E" horiz-adv-x="1024" d="M164 0V1366H918V1171H371V844H901V649H371V195H918V0H164Z" />
<glyph unicode="F" glyph-name="F" horiz-adv-x="919" d="M164 0V1366H846V1171H371V844H829V649H371V0H164Z" />
<glyph unicode="G" glyph-name="G" horiz-adv-x="1525" d="M96 680Q96 979 304 1186T809 1393Q1038 1393 1219 1260Q1289 1211 1370 1114L1223 973Q1053 1198 813 1198Q596 1198 450 1049T303 680Q303 451 467 305Q617 168 799 168Q953 168 1072 270T1206 516H866V711H1432V647Q1432
397 1311 231Q1223 110 1085 42T793 -27Q506 -27 301 181T96 680Z" />
<glyph unicode="H" glyph-name="H" horiz-adv-x="1329" d="M164 0V1366H371V831H958V1366H1165V0H958V637H371V0H164Z" />
<glyph unicode="I" glyph-name="I" horiz-adv-x="534" d="M164 0V1366H371V0H164Z" />
<glyph unicode="J" glyph-name="J" horiz-adv-x="743" d="M-37 43L66 219Q140 168 205 168Q314 168 350 270Q370 331 371 481V1366H578V481Q578 331 557 246T481 96Q377 -27 205 -27Q78 -27 -37 43Z" />
<glyph unicode="K" glyph-name="K" horiz-adv-x="1200" d="M164 0V1366H371V821L901 1366H1176L561 748L1180 0H905L414 608L371 565V0H164Z" />
<glyph unicode="L" glyph-name="L" horiz-adv-x="802" d="M164 0V1366H371V195H772V0H164Z" />
<glyph unicode="M" glyph-name="M" horiz-adv-x="1740" d="M117 0L403 1468L872 408L1358 1468L1616 0H1405L1274 823L870 -63L477 825L330 0H117Z" />
<glyph unicode="N" glyph-name="N" horiz-adv-x="1529" d="M164 0V1458L1159 418V1366H1366V-84L371 956V0H164Z" />
<glyph unicode="O" glyph-name="O" horiz-adv-x="1617" d="M96 688Q96 977 308 1185T813 1393T1315 1184T1524 682Q1524 387 1313 180T803 -27Q656 -27 514 37T268 215Q96 405 96 688ZM303 686Q303 459 454 314T805 168Q1020 168 1168 316T1317 682T1171 1048T811
1198T451 1050T303 686Z" />
<glyph unicode="P" glyph-name="P" horiz-adv-x="976" d="M164 0V1366H397Q553 1366 634 1348T780 1280Q850 1227 890 1141T930 961Q930 785 811 672Q692 555 467 555H371V0H164ZM371 745H446Q593 745 662 801Q732 860 731 965Q731 1071 655 1126Q585 1175 438
1176H371V745Z" />
<glyph unicode="Q" glyph-name="Q" horiz-adv-x="1617" d="M96 678Q96 975 304 1184T809 1393T1315 1181T1524 666Q1524 400 1329 197L1554 -27H1294L1188 84Q1014 -27 807 -27Q655 -27 512 37T266 217Q96 404 96 678ZM303 676Q303 455 451 313Q603 168 799 168Q936
168 1042 229L721 541H987L1186 342Q1317 481 1317 680Q1317 899 1171 1048T807 1198T447 1050T303 676Z" />
<glyph unicode="R" glyph-name="R" horiz-adv-x="1089" d="M164 1366H406Q648 1366 766 1286Q842 1235 886 1148T930 965Q930 822 847 716T627 582L1049 0H797L408 559H371V0H164V1366ZM371 739H436Q573 739 643 788Q729 847 729 963Q729 1069 647 1124Q579 1171
444 1171H371V739Z" />
<glyph unicode="S" glyph-name="S" horiz-adv-x="1054" d="M96 377L305 424Q317 318 344 274Q371 225 424 197T541 168Q637 168 700 232T764 395Q764 510 670 575Q623 606 438 684Q157 801 158 1030Q158 1184 275 1288T567 1393Q690 1393 778 1338T936 1163L770
1063Q723 1141 680 1169T565 1198Q481 1198 424 1150T367 1028Q367 958 432 913Q471 886 651 813Q817 743 894 647T971 410Q971 222 846 98T532 -27Q301 -27 174 156Q114 242 96 377Z" />
<glyph unicode="T" glyph-name="T" horiz-adv-x="874" d="M20 1171V1366H854V1171H541V0H334V1171H20Z" />
<glyph unicode="U" glyph-name="U" horiz-adv-x="1337" d="M164 487V1366H371V543Q371 383 414 307Q451 244 520 206T670 168T818 206T924 307Q967 383 967 543V1366H1174V487Q1174 297 1069 166Q997 76 891 25T670 -27Q553 -27 447 24T268 166Q164 297 164 487Z" />
<glyph unicode="V" glyph-name="V" horiz-adv-x="1224" d="M6 1366H231L608 420L991 1366H1217L604 -102L6 1366Z" />
<glyph unicode="W" glyph-name="W" horiz-adv-x="1921" d="M6 1366H229L586 453L956 1432L1313 453L1690 1366H1913L1303 -88L952 881L586 -88L6 1366Z" />
<glyph unicode="X" glyph-name="X" horiz-adv-x="1118" d="M20 0L451 715L74 1366H307L569 903L842 1366H1079L686 713L1098 0H868L565 522L254 0H20Z" />
<glyph unicode="Y" glyph-name="Y" horiz-adv-x="1087" d="M-6 1366H231L543 819L858 1366H1094L647 590V0H440V590L-6 1366Z" />
<glyph unicode="Z" glyph-name="Z" horiz-adv-x="1132" d="M61 0L731 1171H170V1366H1069L399 195H1055V0H61Z" />
<glyph unicode="[" glyph-name="bracketleft" horiz-adv-x="647" d="M178 -362V1493H553V1307H381V-176H553V-362H178Z" />
<glyph unicode="\" glyph-name="backslash" horiz-adv-x="937" d="M6 1436L170 1509L952 -301L788 -375L6 1436Z" />
<glyph unicode="]" glyph-name="bracketright" horiz-adv-x="647" d="M96 -176H268V1307H96V1493H471V-362H96V-176Z" />
<glyph unicode="^" glyph-name="asciicircum" horiz-adv-x="1024" d="M31 719L377 1372H645L991 719H774L510 1208L248 719H31Z" />
<glyph unicode="_" glyph-name="underscore" horiz-adv-x="1024" d="M0 -115H1024V-301H0V-115Z" />
<glyph unicode="`" glyph-name="grave" horiz-adv-x="1024" d="M174 1286L360 1384L604 1061L496 995L174 1286Z" />
<glyph unicode="a" glyph-name="a" horiz-adv-x="1085" d="M84 432Q84 627 199 756T489 885Q571 885 632 856T760 762V862H958V0H760V90Q690 24 632 -1T496 -27Q318 -27 201 103T84 432ZM287 432Q287 309 354 231T524 152Q635 152 703 228T772 428T704 629T526
707Q424 707 356 629T287 432Z" />
<glyph unicode="b" glyph-name="b" horiz-adv-x="1085" d="M125 1493H324V762Q445 885 594 885Q768 885 883 756T999 432Q999 233 883 103T590 -27Q443 -27 324 90V0H125V1493ZM311 430Q311 305 380 229T557 152Q659 152 728 229T797 424Q797 547 730 627T559
707Q448 707 380 630T311 430Z" />
<glyph unicode="c" glyph-name="c" horiz-adv-x="862" d="M82 428Q82 621 218 753T553 885Q678 885 795 825V561Q725 643 672 675T547 707Q434 707 360 628T285 430Q285 309 357 231T543 152Q617 152 670 183T795 301V37Q674 -26 551 -27Q352 -27 217 103T82 428Z" />
<glyph unicode="d" glyph-name="d" horiz-adv-x="1085" d="M84 432Q84 627 199 756T489 885Q639 885 760 762V1493H958V0H760V90Q641 -27 494 -27Q318 -27 201 103T84 432ZM287 434Q287 309 354 231T524 152Q635 152 703 228T772 428T704 629T526 707Q424 707
356 629T287 434Z" />
<glyph unicode="e" glyph-name="e" horiz-adv-x="1001" d="M84 428Q84 635 198 760T500 885Q606 885 697 839T840 715Q910 604 909 430V383H293Q301 277 361 215T516 152Q592 152 641 187T750 319L918 225Q861 129 801 78Q676 -26 510 -27Q317 -27 201 98T84 428ZM305
545H705Q664 705 504 705Q432 705 378 662T305 545Z" />
<glyph unicode="f" glyph-name="f" horiz-adv-x="536" d="M61 676V862H133V1194Q133 1352 190 1423Q270 1517 416 1518Q477 1518 549 1487V1284Q463 1327 422 1327Q369 1327 351 1289T332 1145V862H549V676H332V0H133V676H61Z" />
<glyph unicode="g" glyph-name="g" horiz-adv-x="1083" d="M86 424Q86 625 200 755T489 885Q651 885 760 764V862H958V20Q958 -107 943 -175T885 -305Q770 -471 541 -471Q348 -471 236 -359T121 -51H315Q323 -151 348 -193Q375 -238 427 -265T541 -293Q664 -293
721 -205Q760 -146 760 -25V96Q643 -27 487 -27Q313 -27 200 101T86 424ZM289 428Q289 293 360 221Q430 151 526 152Q632 152 700 228T768 428Q768 553 702 630T526 707Q420 707 355 631T289 428Z" />
<glyph unicode="h" glyph-name="h" horiz-adv-x="993" d="M125 0V1493H324V791Q433 885 559 885Q725 885 809 768Q866 692 866 528V0H668V510Q668 612 631 659T512 707Q403 707 358 635Q323 582 324 416V0H125Z" />
<glyph unicode="i" glyph-name="i" horiz-adv-x="450" d="M96 1167T96 1220T134 1312T225 1350Q280 1350 318 1312T356 1221T319 1129T227 1090Q172 1090 134 1128ZM127 0V862H326V0H127Z" />
<glyph unicode="j" glyph-name="j" horiz-adv-x="450" d="M96 1167T96 1220T134 1312T225 1350Q280 1350 318 1312T356 1221T319 1129T227 1090Q172 1090 134 1128ZM127 -469V862H326V-469H127Z" />
<glyph unicode="k" glyph-name="k" horiz-adv-x="901" d="M125 0V1493H324V584L602 862H870L496 500L897 0H639L354 362L324 332V0H125Z" />
<glyph unicode="l" glyph-name="l" horiz-adv-x="450" d="M125 0V1493H324V0H125Z" />
<glyph unicode="m" glyph-name="m" horiz-adv-x="1431" d="M125 862H324V782Q381 841 424 863T530 885Q680 885 762 758Q854 885 1016 885Q1098 885 1165 848T1266 750Q1307 668 1307 532V0H1108V479Q1108 602 1078 654T975 707Q893 707 855 645T817 444V0H618V477Q618
706 485 707Q444 707 407 686T352 629Q323 574 324 444V0H125V862Z" />
<glyph unicode="n" glyph-name="n" horiz-adv-x="993" d="M125 0V862H324V782Q383 839 434 862T559 885Q733 885 813 768Q866 690 866 528V0H668V481Q668 602 641 645Q602 706 508 707Q408 707 366 641T324 416V0H125Z" />
<glyph unicode="o" glyph-name="o" horiz-adv-x="1087" d="M84 436Q84 622 218 753T543 885Q738 885 871 754T1004 430Q1004 235 871 104T541 -27Q348 -27 216 107T84 436ZM287 432Q287 305 356 229T541 152Q660 152 730 227T801 428Q801 555 730 631T543 707Q428
707 358 631T287 432Z" />
<glyph unicode="p" glyph-name="p" horiz-adv-x="1085" d="M125 -469V862H324V768Q443 885 590 885Q766 885 882 755T999 426Q999 231 884 102T594 -27Q444 -27 324 96V-469H125ZM311 553T311 430T380 230T557 152Q657 152 727 230T797 424Q797 549 730 628T559
707Q448 707 380 630Z" />
<glyph unicode="q" glyph-name="q" horiz-adv-x="1085" d="M84 426Q84 625 200 755T494 885Q641 885 760 768V862H958V-469H760V96Q639 -27 489 -27Q315 -27 200 102T84 426ZM287 434Q287 311 354 232T524 152Q633 152 702 228T772 428Q772 553 704 630T526 707Q424
707 356 629T287 434Z" />
<glyph unicode="r" glyph-name="r" horiz-adv-x="677" d="M125 0V862H324V784Q379 843 422 865T522 887Q600 887 688 834L596 651Q537 694 485 694Q323 694 324 446V0H125Z" />
<glyph unicode="s" glyph-name="s" horiz-adv-x="735" d="M68 186L238 264Q273 198 302 175T377 152T450 177T479 244T450 308T281 401Q185 448 149 496T113 625Q113 738 189 811T381 885Q547 885 627 715L463 627Q424 707 365 707Q336 707 318 690T299 645T321
599T414 547Q574 473 628 416T682 264Q682 143 593 58T375 -27Q158 -27 68 186Z" />
<glyph unicode="t" glyph-name="t" horiz-adv-x="495" d="M47 676V862H131V1178H330V862H485V676H330V0H131V676H47Z" />
<glyph unicode="u" glyph-name="u" horiz-adv-x="987" d="M125 362V862H324V367Q324 273 348 229Q391 151 494 152Q594 152 637 229Q662 272 662 367V862H860V362Q860 260 841 198T770 82Q670 -27 492 -27Q316 -27 215 82Q164 135 145 197T125 362Z" />
<glyph unicode="v" glyph-name="v" horiz-adv-x="909" d="M10 862H233L457 379L678 862H901L455 -59L10 862Z" />
<glyph unicode="w" glyph-name="w" horiz-adv-x="1400" d="M10 862H233L459 371L702 940L948 371L1171 862H1393L942 -66L702 492L461 -66L10 862Z" />
<glyph unicode="x" glyph-name="x" horiz-adv-x="1011" d="M10 0L393 467L84 862H322L512 610L709 862H952L633 467L1001 0H766L512 322L254 0H10Z" />
<glyph unicode="y" glyph-name="y" horiz-adv-x="983" d="M10 862H242L504 367L750 862H975L289 -469H61L397 162L10 862Z" />
<glyph unicode="z" glyph-name="z" horiz-adv-x="983" d="M16 0L575 676H135V862H969L412 186H924V0H16Z" />
<glyph unicode="{" glyph-name="braceleft" horiz-adv-x="647" d="M84 487V657Q145 673 172 712T199 827V1221Q199 1373 255 1441T436 1509Q475 1509 504 1507Q533 1507 555 1505V1327Q547 1329 530 1329Q436 1329 414 1274Q404 1251 403 1167V813Q403 711 378
660T279 565Q404 489 403 369V-33Q403 -139 426 -164Q454 -199 517 -199Q524 -199 530 -199Q546 -199 555 -197V-375L442 -379Q435 -379 428 -379Q310 -379 256 -312Q199 -241 199 -80V356Q199 403 167 439T84 487Z" />
<glyph unicode="|" glyph-name="bar" horiz-adv-x="1024" d="M410 -342V1366H614V-342H410Z" />
<glyph unicode="}" glyph-name="braceright" horiz-adv-x="647" d="M92 -197L117 -199Q207 -205 233 -143Q243 -120 244 -37V317Q244 419 269 470T369 565Q244 641 244 762V1163Q244 1265 220 1297T117 1329Q101 1329 92 1327V1505Q115 1507 141 1507Q174 1509
205 1509Q336 1509 392 1440T449 1210V774Q449 729 479 693T563 643V473Q502 459 476 420T449 305V-90Q449 -244 393 -312T211 -379L92 -375V-197Z" />
<glyph unicode="~" glyph-name="asciitilde" horiz-adv-x="1366" d="M188 1247Q258 1392 321 1448T481 1505Q567 1505 705 1444Q832 1389 893 1389Q942 1389 985 1417T1049 1491Q1059 1514 1073 1513Q1110 1513 1180 1440Q1112 1305 1042 1248T872 1190Q794 1190
643 1260Q532 1309 463 1309Q422 1309 376 1273T315 1192Q307 1169 293 1169Q256 1169 188 1247Z" />
</font>
</defs>
</svg>
